<svg xmlns="http://www.w3.org/2000/svg" width="256.5" height="416.5" viewBox="0 0 256.5 416.5">
  <g>
    <path d="M75.9,192.689H69.35v6.075h7.3v1.824H67.175V183.742h9.1v1.824H69.35v5.325H75.9Z"/>
    <path d="M93.372,203.062c-2.275-.6-4.5-1.275-6.449-1.951a3.271,3.271,0,0,0-1.025-.248c-4-.15-7.422-3.1-7.422-8.523,0-5.4,3.3-8.873,7.847-8.873,4.574,0,7.548,3.549,7.548,8.523,0,4.322-2,7.1-4.8,8.072v.1c1.675.426,3.5.826,4.924,1.074Zm-1.8-10.972c0-3.375-1.75-6.85-5.324-6.85-3.674,0-5.474,3.4-5.448,7.049-.026,3.574,1.949,6.8,5.348,6.8C89.622,199.088,91.572,195.939,91.572,192.09Z"/>
    <path d="M98.874,183.742v9.973c0,3.773,1.675,5.373,3.924,5.373,2.5,0,4.1-1.65,4.1-5.373v-9.973h2.2v9.822c0,5.174-2.725,7.3-6.374,7.3-3.449,0-6.048-1.974-6.048-7.2v-9.922Z"/>
    <path d="M115.049,183.742v16.846h-2.175V183.742Z"/>
    <path d="M118.85,183.941a25.189,25.189,0,0,1,4.173-.324,6.923,6.923,0,0,1,4.724,1.4,4.53,4.53,0,0,1,1.475,3.525,4.955,4.955,0,0,1-1.3,3.6,6.983,6.983,0,0,1-5.149,1.849,7.485,7.485,0,0,1-1.749-.148v6.748H118.85Zm2.174,8.123a7.285,7.285,0,0,0,1.8.176c2.625,0,4.225-1.275,4.225-3.6,0-2.225-1.575-3.3-3.975-3.3a9.132,9.132,0,0,0-2.049.174Z"/>
    <path d="M146.046,193.189c-.125-2.349-.275-5.173-.25-7.273h-.075c-.575,1.975-1.275,4.074-2.124,6.4l-2.975,8.174h-1.649l-2.725-8.023c-.8-2.375-1.475-4.549-1.949-6.549h-.05c-.05,2.1-.175,4.924-.325,7.447l-.45,7.225H131.4l1.175-16.846h2.775l2.874,8.147c.7,2.076,1.275,3.925,1.7,5.673H140c.426-1.7,1.025-3.548,1.775-5.673l3-8.147h2.775l1.05,16.846h-2.125Z"/>
    <path d="M160.672,192.689h-6.548v6.075h7.3v1.824h-9.473V183.742h9.1v1.824h-6.923v5.325h6.548Z"/>
    <path d="M164.249,200.588V183.742h2.374l5.4,8.522a47.826,47.826,0,0,1,3.024,5.474l.051-.025c-.2-2.25-.25-4.3-.25-6.924v-7.047H176.9v16.846h-2.2l-5.348-8.549a53.561,53.561,0,0,1-3.15-5.623l-.075.025c.125,2.123.176,4.149.176,6.948v7.2Z"/>
    <path d="M183.9,185.592h-5.123v-1.85h12.472v1.85H186.1v15h-2.2Z"/>
    <path d="M105.76,230.037a10.775,10.775,0,0,1-4.449.8c-4.749,0-8.324-3-8.324-8.524,0-5.273,3.575-8.847,8.8-8.847a9.012,9.012,0,0,1,4,.75l-.524,1.773a7.953,7.953,0,0,0-3.4-.7c-3.949,0-6.573,2.525-6.573,6.949,0,4.123,2.374,6.774,6.474,6.774a8.687,8.687,0,0,0,3.549-.7Z"/>
    <path d="M111.312,225.289l-1.75,5.3h-2.25l5.724-16.846h2.624l5.748,16.846h-2.324l-1.8-5.3Zm5.523-1.7-1.649-4.85c-.375-1.1-.625-2.1-.875-3.074h-.05c-.25,1-.526,2.025-.851,3.049l-1.649,4.875Z"/>
    <path d="M123.887,213.967a22.636,22.636,0,0,1,4.174-.35c2.324,0,3.824.424,4.874,1.375a4.194,4.194,0,0,1,1.324,3.2,4.426,4.426,0,0,1-3.174,4.3v.074c1.3.45,2.074,1.651,2.475,3.4a26.782,26.782,0,0,0,1.3,4.625h-2.25a22.021,22.021,0,0,1-1.125-4.026c-.5-2.324-1.4-3.2-3.374-3.273h-2.048v7.3h-2.175Zm2.175,7.672h2.223c2.325,0,3.8-1.274,3.8-3.2,0-2.173-1.575-3.123-3.874-3.148a9,9,0,0,0-2.149.2Z"/>
    <path d="M137.337,213.967a31,31,0,0,1,4.624-.35c3.124,0,5.349.725,6.823,2.1a7.757,7.757,0,0,1,2.374,6.047,8.9,8.9,0,0,1-2.424,6.548c-1.575,1.575-4.174,2.426-7.448,2.426a35.061,35.061,0,0,1-3.949-.2Zm2.175,14.9a13.721,13.721,0,0,0,2.2.125c4.648,0,7.173-2.6,7.173-7.148.025-3.975-2.225-6.5-6.823-6.5a12.354,12.354,0,0,0-2.549.224Z"/>
    <path d="M153.687,227.938a7.71,7.71,0,0,0,3.9,1.1c2.225,0,3.524-1.174,3.524-2.873,0-1.574-.9-2.475-3.173-3.35-2.75-.974-4.45-2.4-4.45-4.773,0-2.625,2.175-4.574,5.449-4.574a7.668,7.668,0,0,1,3.724.824l-.6,1.775a6.711,6.711,0,0,0-3.2-.8c-2.3,0-3.174,1.375-3.174,2.525,0,1.574,1.025,2.35,3.349,3.248,2.85,1.1,4.3,2.475,4.3,4.949,0,2.6-1.925,4.85-5.9,4.85a8.69,8.69,0,0,1-4.3-1.076Z"/>
  </g>
  <rect x="32.5" y="32.5" width="192" height="352" fill="none" stroke="#000"/>
  <rect x="33" y="32.5" width="192" height="352" fill="none" stroke="#000"/>
</svg>
