<svg xmlns="http://www.w3.org/2000/svg" width="256.5" height="416.5" viewBox="0 0 256.5 416.5">
  <g>
    <path d="M108.8,200.037a10.775,10.775,0,0,1-4.449.8c-4.748,0-8.323-3-8.323-8.524,0-5.273,3.575-8.847,8.8-8.847a9.012,9.012,0,0,1,4,.75l-.525,1.773a7.946,7.946,0,0,0-3.4-.7c-3.948,0-6.573,2.525-6.573,6.949,0,4.123,2.375,6.774,6.474,6.774a8.68,8.68,0,0,0,3.549-.7Z"/>
    <path d="M111.524,183.742H113.7v15.022h7.2v1.824h-9.373Z"/>
    <path d="M126.049,195.289l-1.75,5.3H122.05l5.723-16.846H130.4l5.749,16.846h-2.325l-1.8-5.3Zm5.523-1.7-1.649-4.85c-.375-1.1-.625-2.1-.875-3.074H129c-.25,1-.525,2.025-.851,3.049L126.5,193.59Z"/>
    <path d="M138.324,197.938a7.716,7.716,0,0,0,3.9,1.1c2.224,0,3.524-1.174,3.524-2.873,0-1.574-.9-2.475-3.174-3.35-2.75-.974-4.449-2.4-4.449-4.773,0-2.625,2.175-4.574,5.448-4.574a7.669,7.669,0,0,1,3.725.824l-.6,1.775a6.71,6.71,0,0,0-3.2-.8c-2.3,0-3.175,1.375-3.175,2.525,0,1.574,1.026,2.35,3.35,3.248,2.849,1.1,4.3,2.475,4.3,4.949,0,2.6-1.925,4.85-5.9,4.85a8.693,8.693,0,0,1-4.3-1.076Z"/>
    <path d="M150.649,197.938a7.716,7.716,0,0,0,3.9,1.1c2.224,0,3.524-1.174,3.524-2.873,0-1.574-.9-2.475-3.174-3.35-2.75-.974-4.449-2.4-4.449-4.773,0-2.625,2.175-4.574,5.448-4.574a7.669,7.669,0,0,1,3.725.824l-.6,1.775a6.7,6.7,0,0,0-3.2-.8c-2.3,0-3.175,1.375-3.175,2.525,0,1.574,1.026,2.35,3.35,3.248,2.85,1.1,4.3,2.475,4.3,4.949,0,2.6-1.925,4.85-5.9,4.85a8.686,8.686,0,0,1-4.3-1.076Z"/>
    <path d="M105.76,230.037a10.775,10.775,0,0,1-4.449.8c-4.749,0-8.324-3-8.324-8.524,0-5.273,3.575-8.847,8.8-8.847a9.012,9.012,0,0,1,4,.75l-.524,1.773a7.953,7.953,0,0,0-3.4-.7c-3.949,0-6.573,2.525-6.573,6.949,0,4.123,2.374,6.774,6.474,6.774a8.687,8.687,0,0,0,3.549-.7Z"/>
    <path d="M111.312,225.289l-1.75,5.3h-2.25l5.724-16.846h2.624l5.748,16.846h-2.324l-1.8-5.3Zm5.523-1.7-1.649-4.85c-.375-1.1-.625-2.1-.875-3.074h-.05c-.25,1-.526,2.025-.851,3.049l-1.649,4.875Z"/>
    <path d="M123.887,213.967a22.636,22.636,0,0,1,4.174-.35c2.324,0,3.824.424,4.874,1.375a4.194,4.194,0,0,1,1.324,3.2,4.426,4.426,0,0,1-3.174,4.3v.074c1.3.45,2.074,1.651,2.475,3.4a26.782,26.782,0,0,0,1.3,4.625h-2.25a22.021,22.021,0,0,1-1.125-4.026c-.5-2.324-1.4-3.2-3.374-3.273h-2.048v7.3h-2.175Zm2.175,7.672h2.223c2.325,0,3.8-1.274,3.8-3.2,0-2.173-1.575-3.123-3.874-3.148a9,9,0,0,0-2.149.2Z"/>
    <path d="M137.337,213.967a31,31,0,0,1,4.624-.35c3.124,0,5.349.725,6.823,2.1a7.757,7.757,0,0,1,2.374,6.047,8.9,8.9,0,0,1-2.424,6.548c-1.575,1.575-4.174,2.426-7.448,2.426a35.061,35.061,0,0,1-3.949-.2Zm2.175,14.9a13.721,13.721,0,0,0,2.2.125c4.648,0,7.173-2.6,7.173-7.148.025-3.975-2.225-6.5-6.823-6.5a12.354,12.354,0,0,0-2.549.224Z"/>
    <path d="M153.687,227.938a7.71,7.71,0,0,0,3.9,1.1c2.225,0,3.524-1.174,3.524-2.873,0-1.574-.9-2.475-3.173-3.35-2.75-.974-4.45-2.4-4.45-4.773,0-2.625,2.175-4.574,5.449-4.574a7.668,7.668,0,0,1,3.724.824l-.6,1.775a6.711,6.711,0,0,0-3.2-.8c-2.3,0-3.174,1.375-3.174,2.525,0,1.574,1.025,2.35,3.349,3.248,2.85,1.1,4.3,2.475,4.3,4.949,0,2.6-1.925,4.85-5.9,4.85a8.69,8.69,0,0,1-4.3-1.076Z"/>
  </g>
  <rect x="32.5" y="32.5" width="192" height="352" fill="none" stroke="#000"/>
  <rect x="33" y="32.5" width="192" height="352" fill="none" stroke="#000"/>
</svg>
