<svg xmlns="http://www.w3.org/2000/svg" width="256.5" height="416.5" viewBox="0 0 256.5 416.5">
  <g>
    <path d="M91.387,168.941a25.226,25.226,0,0,1,4.175-.324,6.923,6.923,0,0,1,4.723,1.4,4.53,4.53,0,0,1,1.475,3.525,4.955,4.955,0,0,1-1.3,3.6,6.98,6.98,0,0,1-5.148,1.849,7.488,7.488,0,0,1-1.75-.148v6.748H91.387Zm2.175,8.123a7.28,7.28,0,0,0,1.8.176c2.624,0,4.224-1.275,4.224-3.6,0-2.225-1.574-3.3-3.974-3.3a9.132,9.132,0,0,0-2.049.174Z"/>
    <path d="M104.687,168.742h2.174v15.022h7.2v1.824h-9.373Z"/>
    <path d="M119.211,180.289l-1.749,5.3h-2.25l5.724-16.846h2.624l5.749,16.846h-2.325l-1.8-5.3Zm5.523-1.7-1.649-4.85c-.375-1.1-.625-2.1-.875-3.074h-.05c-.25,1-.524,2.025-.849,3.049l-1.65,4.875Z"/>
    <path d="M133.561,185.588v-7.149l-5.324-9.7h2.475l2.374,4.649c.65,1.275,1.149,2.3,1.675,3.474h.05c.474-1.1,1.049-2.2,1.7-3.474l2.424-4.649h2.474l-5.648,9.672v7.174Z"/>
    <path d="M151.885,177.689h-6.549v6.075h7.3v1.824h-9.473V168.742h9.1v1.824h-6.924v5.325h6.549Z"/>
    <path d="M155.461,168.967a22.663,22.663,0,0,1,4.175-.35c2.324,0,3.823.424,4.873,1.375a4.191,4.191,0,0,1,1.325,3.2,4.424,4.424,0,0,1-3.175,4.3v.074c1.3.45,2.075,1.651,2.475,3.4a26.818,26.818,0,0,0,1.3,4.625h-2.249a21.687,21.687,0,0,1-1.125-4.025c-.5-2.325-1.4-3.2-3.374-3.274h-2.05v7.3h-2.175Zm2.175,7.672h2.224c2.325,0,3.8-1.274,3.8-3.2,0-2.173-1.574-3.123-3.874-3.148a9,9,0,0,0-2.149.2Z"/>
    <path d="M91.774,210.289l-1.75,5.3H87.775L93.5,198.742h2.624l5.748,16.846H99.547l-1.8-5.3Zm5.524-1.7-1.65-4.85c-.375-1.1-.625-2.1-.875-3.074h-.049c-.25,1-.526,2.025-.851,3.049l-1.649,4.875Z"/>
    <path d="M115.747,215.037a10.771,10.771,0,0,1-4.449.8c-4.749,0-8.323-3-8.323-8.524,0-5.273,3.574-8.847,8.8-8.847a9.012,9.012,0,0,1,4,.75l-.524,1.773a7.952,7.952,0,0,0-3.4-.7c-3.95,0-6.574,2.525-6.574,6.949,0,4.123,2.374,6.774,6.474,6.774a8.7,8.7,0,0,0,3.549-.7Z"/>
    <path d="M122.373,200.592H117.25v-1.85h12.472v1.85h-5.149v15h-2.2Z"/>
    <path d="M133.773,198.742v16.846H131.6V198.742Z"/>
    <path d="M151.971,206.99c0,5.8-3.525,8.873-7.824,8.873-4.449,0-7.573-3.449-7.573-8.549,0-5.349,3.324-8.847,7.823-8.847C149,198.467,151.971,201.99,151.971,206.99Zm-13.073.274c0,3.6,1.951,6.824,5.374,6.824,3.45,0,5.4-3.174,5.4-7,0-3.35-1.749-6.85-5.373-6.85C140.7,200.24,138.9,203.564,138.9,207.264Z"/>
    <path d="M154.8,215.588V198.742h2.375l5.4,8.522a47.69,47.69,0,0,1,3.025,5.474l.049-.025c-.2-2.25-.25-4.3-.25-6.924v-7.047h2.05v16.846h-2.2l-5.349-8.549a53.728,53.728,0,0,1-3.149-5.623l-.075.025c.125,2.123.175,4.149.175,6.948v7.2Z"/>
    <path d="M105.76,245.037a10.775,10.775,0,0,1-4.449.8c-4.749,0-8.324-3-8.324-8.524,0-5.273,3.575-8.847,8.8-8.847a9.012,9.012,0,0,1,4,.75l-.524,1.773a7.953,7.953,0,0,0-3.4-.7c-3.949,0-6.573,2.525-6.573,6.949,0,4.123,2.374,6.774,6.474,6.774a8.7,8.7,0,0,0,3.549-.7Z"/>
    <path d="M111.312,240.289l-1.75,5.3h-2.25l5.724-16.846h2.624l5.748,16.846h-2.324l-1.8-5.3Zm5.523-1.7-1.649-4.85c-.375-1.1-.625-2.1-.875-3.074h-.05c-.25,1-.526,2.025-.851,3.049l-1.649,4.875Z"/>
    <path d="M123.887,228.967a22.636,22.636,0,0,1,4.174-.35c2.324,0,3.824.424,4.874,1.375a4.194,4.194,0,0,1,1.324,3.2,4.426,4.426,0,0,1-3.174,4.3v.074c1.3.45,2.074,1.651,2.475,3.4a26.753,26.753,0,0,0,1.3,4.625h-2.25a22.027,22.027,0,0,1-1.125-4.025c-.5-2.325-1.4-3.2-3.374-3.274h-2.048v7.3h-2.175Zm2.175,7.672h2.223c2.325,0,3.8-1.274,3.8-3.2,0-2.173-1.575-3.123-3.874-3.148a9,9,0,0,0-2.149.2Z"/>
    <path d="M137.337,228.967a31,31,0,0,1,4.624-.35c3.124,0,5.349.725,6.823,2.1a7.757,7.757,0,0,1,2.374,6.047,8.907,8.907,0,0,1-2.424,6.549c-1.575,1.574-4.174,2.425-7.448,2.425a35.061,35.061,0,0,1-3.949-.2Zm2.175,14.9a13.721,13.721,0,0,0,2.2.125c4.648,0,7.173-2.6,7.173-7.148.025-3.975-2.225-6.5-6.823-6.5a12.354,12.354,0,0,0-2.549.224Z"/>
    <path d="M153.687,242.938a7.71,7.71,0,0,0,3.9,1.1c2.225,0,3.524-1.174,3.524-2.873,0-1.574-.9-2.475-3.173-3.35-2.75-.974-4.45-2.4-4.45-4.773,0-2.625,2.175-4.574,5.449-4.574a7.668,7.668,0,0,1,3.724.824l-.6,1.775a6.711,6.711,0,0,0-3.2-.8c-2.3,0-3.174,1.375-3.174,2.525,0,1.574,1.025,2.35,3.349,3.248,2.85,1.1,4.3,2.475,4.3,4.949,0,2.6-1.925,4.85-5.9,4.85a8.69,8.69,0,0,1-4.3-1.076Z"/>
  </g>
  <rect x="32.5" y="32.5" width="192" height="352" fill="none" stroke="#000"/>
</svg>
