<svg xmlns="http://www.w3.org/2000/svg" width="256.5" height="256.5" viewBox="0 0 256.5 256.5">
  <g>
    <path d="M94.384,119.838a15.694,15.694,0,0,1-5.173.924,7.913,7.913,0,0,1-8.649-8.5c.026-5.024,3.475-8.7,9.124-8.7a10.416,10.416,0,0,1,4.2.776l-.526,1.773a8.756,8.756,0,0,0-3.723-.724c-4.1,0-6.774,2.55-6.774,6.773,0,4.274,2.575,6.8,6.5,6.8a7.1,7.1,0,0,0,2.9-.449v-5.026H88.836V111.74h5.548Z"/>
    <path d="M97.712,103.967a22.655,22.655,0,0,1,4.175-.35c2.324,0,3.823.424,4.873,1.375a4.191,4.191,0,0,1,1.325,3.2,4.424,4.424,0,0,1-3.175,4.3v.074c1.3.45,2.075,1.651,2.475,3.4a26.847,26.847,0,0,0,1.3,4.625h-2.249a21.681,21.681,0,0,1-1.125-4.026c-.5-2.324-1.4-3.2-3.374-3.273h-2.05v7.3H97.712Zm2.175,7.672h2.224c2.325,0,3.8-1.274,3.8-3.2,0-2.173-1.574-3.123-3.874-3.148a9,9,0,0,0-2.149.2Z"/>
    <path d="M125.633,111.99c0,5.8-3.524,8.873-7.822,8.873-4.45,0-7.574-3.449-7.574-8.549,0-5.349,3.325-8.847,7.823-8.847C122.659,103.467,125.633,106.99,125.633,111.99Zm-13.071.274c0,3.6,1.949,6.824,5.374,6.824,3.448,0,5.4-3.174,5.4-7,0-3.35-1.75-6.85-5.374-6.85C114.361,105.24,112.562,108.564,112.562,112.264Z"/>
    <path d="M130.637,103.742v9.973c0,3.773,1.674,5.373,3.924,5.373,2.5,0,4.1-1.65,4.1-5.373v-9.973h2.2v9.822c0,5.174-2.723,7.3-6.373,7.3-3.449,0-6.048-1.974-6.048-7.2v-9.922Z"/>
    <path d="M144.637,120.588V103.742h2.374l5.4,8.522a47.826,47.826,0,0,1,3.024,5.474l.05-.025c-.2-2.25-.25-4.3-.25-6.924v-7.047h2.049v16.846h-2.2l-5.349-8.549a53.728,53.728,0,0,1-3.149-5.623l-.075.025c.125,2.123.176,4.149.176,6.948v7.2Z"/>
    <path d="M161.086,103.967a31.006,31.006,0,0,1,4.624-.35c3.124,0,5.349.725,6.823,2.1a7.754,7.754,0,0,1,2.375,6.047,8.9,8.9,0,0,1-2.425,6.548c-1.574,1.575-4.173,2.426-7.448,2.426a35.074,35.074,0,0,1-3.949-.2Zm2.175,14.9a13.721,13.721,0,0,0,2.2.125c4.649,0,7.174-2.6,7.174-7.148.024-3.975-2.225-6.5-6.823-6.5a12.372,12.372,0,0,0-2.55.224Z"/>
    <path d="M105.437,135.592h-5.125v-1.85h12.472v1.85h-5.148v15h-2.2Z"/>
    <path d="M116.837,133.742v16.846h-2.175V133.742Z"/>
    <path d="M120.637,133.742h2.175v15.022h7.2v1.824h-9.373Z"/>
    <path d="M141.159,142.689h-6.548v6.075h7.3v1.824h-9.472V133.742h9.1v1.824h-6.923v5.325h6.548Z"/>
    <path d="M144.437,147.938a7.71,7.71,0,0,0,3.9,1.1c2.225,0,3.524-1.174,3.524-2.873,0-1.574-.9-2.475-3.173-3.35-2.75-.974-4.45-2.4-4.45-4.773,0-2.625,2.175-4.574,5.449-4.574a7.668,7.668,0,0,1,3.724.824l-.6,1.775a6.711,6.711,0,0,0-3.2-.8c-2.3,0-3.174,1.375-3.174,2.525,0,1.574,1.025,2.35,3.349,3.248,2.85,1.1,4.3,2.475,4.3,4.949,0,2.6-1.925,4.85-5.9,4.85a8.69,8.69,0,0,1-4.3-1.076Z"/>
  </g>
  <rect x="32" y="32.5" width="192" height="192" fill="none" stroke="#000"/>
  <rect x="32.5" y="32.5" width="192" height="192" fill="none" stroke="#000"/>
</svg>
