<svg xmlns="http://www.w3.org/2000/svg" width="256.5" height="256.5" viewBox="0 0 256.5 256.5">
  <rect width="256.5" height="256.5" fill="#fff"/>
  <g>
    <path d="M94.85,118.967a20.969,20.969,0,0,1,3.973-.35c2.175,0,3.574.375,4.624,1.225a3.527,3.527,0,0,1,1.4,2.974,4,4,0,0,1-2.849,3.7v.05a4.343,4.343,0,0,1,3.474,4.225,4.537,4.537,0,0,1-1.425,3.373c-1.175,1.076-3.074,1.576-5.823,1.576a25.358,25.358,0,0,1-3.374-.2Zm2.174,6.9H99c2.3,0,3.649-1.2,3.649-2.824,0-1.975-1.5-2.75-3.7-2.75a9.252,9.252,0,0,0-1.924.15Zm0,8.073a11.515,11.515,0,0,0,1.825.1c2.249,0,4.324-.824,4.324-3.273,0-2.3-1.975-3.25-4.35-3.25h-1.8Z"/>
    <path d="M119.372,129.439c0,4.473-3.1,6.424-6.023,6.424-3.275,0-5.8-2.4-5.8-6.224,0-4.049,2.649-6.424,6-6.424C117.022,123.215,119.372,125.74,119.372,129.439Zm-9.6.125c0,2.649,1.525,4.649,3.674,4.649,2.1,0,3.674-1.975,3.674-4.7,0-2.049-1.024-4.649-3.624-4.649S109.774,127.264,109.774,129.564Z"/>
    <path d="M121.849,133.338a5.752,5.752,0,0,0,2.9.875c1.6,0,2.35-.8,2.35-1.8,0-1.051-.625-1.625-2.249-2.225-2.175-.775-3.2-1.974-3.2-3.425,0-1.95,1.575-3.549,4.174-3.549a6.029,6.029,0,0,1,2.975.75l-.551,1.6a4.728,4.728,0,0,0-2.474-.7c-1.3,0-2.024.75-2.024,1.649,0,1,.725,1.451,2.3,2.05,2.1.8,3.175,1.85,3.175,3.649,0,2.125-1.651,3.625-4.525,3.625a6.9,6.9,0,0,1-3.4-.826Z"/>
    <path d="M131.749,133.338a5.752,5.752,0,0,0,2.9.875c1.6,0,2.35-.8,2.35-1.8,0-1.051-.625-1.625-2.25-2.225-2.174-.775-3.2-1.974-3.2-3.425,0-1.95,1.575-3.549,4.174-3.549a6.027,6.027,0,0,1,2.974.75l-.55,1.6a4.721,4.721,0,0,0-2.474-.7c-1.3,0-2.025.75-2.025,1.649,0,1,.725,1.451,2.3,2.05,2.1.8,3.174,1.85,3.174,3.649,0,2.125-1.649,3.625-4.523,3.625a6.9,6.9,0,0,1-3.4-.826Z"/>
    <path d="M143.174,129.939a3.876,3.876,0,0,0,4.148,4.2,7.971,7.971,0,0,0,3.35-.625l.375,1.574a9.8,9.8,0,0,1-4.025.75c-3.723,0-5.948-2.449-5.948-6.1s2.15-6.523,5.674-6.523c3.948,0,5,3.474,5,5.7a8.581,8.581,0,0,1-.074,1.025Zm6.448-1.576c.024-1.4-.575-3.572-3.05-3.572-2.223,0-3.2,2.049-3.374,3.572Z"/>
    <path d="M154.174,133.338a5.752,5.752,0,0,0,2.9.875c1.6,0,2.35-.8,2.35-1.8,0-1.051-.625-1.625-2.25-2.225-2.174-.775-3.2-1.974-3.2-3.425,0-1.95,1.575-3.549,4.173-3.549a6.029,6.029,0,0,1,2.975.75l-.55,1.6a4.721,4.721,0,0,0-2.474-.7c-1.3,0-2.025.75-2.025,1.649,0,1,.725,1.451,2.3,2.05,2.1.8,3.174,1.85,3.174,3.649,0,2.125-1.65,3.625-4.524,3.625a6.9,6.9,0,0,1-3.4-.826Z"/>
  </g>
  <rect x="32" y="32.5" width="192" height="192" fill="none" stroke="#000"/>
  <rect x="32.5" y="32.5" width="192" height="192" fill="none" stroke="#000"/>
</svg>
