<svg xmlns="http://www.w3.org/2000/svg" width="512" height="512" viewBox="0 0 512 512">
  <g>
    <rect x="29.217" y="32" width="19.599" height="19.478" fill="#fff" stroke="#000" stroke-miterlimit="10" stroke-width="10"/>
    <rect x="460.401" y="32" width="19.599" height="19.478" fill="#fff" stroke="#000" stroke-miterlimit="10" stroke-width="10"/>
    <rect x="48.817" y="32" width="58.798" height="19.478" fill="#fff" stroke="#000" stroke-miterlimit="10" stroke-width="10"/>
    <rect x="107.614" y="32" width="58.798" height="19.478" fill="#fff" stroke="#000" stroke-miterlimit="10" stroke-width="10"/>
    <rect x="166.412" y="32" width="58.798" height="19.478" fill="#fff" stroke="#000" stroke-miterlimit="10" stroke-width="10"/>
    <rect x="225.21" y="32" width="58.798" height="19.478" fill="#fff" stroke="#000" stroke-miterlimit="10" stroke-width="10"/>
    <rect x="284.008" y="32" width="58.798" height="19.478" fill="#fff" stroke="#000" stroke-miterlimit="10" stroke-width="10"/>
    <rect x="342.805" y="32" width="58.798" height="19.478" fill="#fff" stroke="#000" stroke-miterlimit="10" stroke-width="10"/>
    <rect x="401.603" y="32" width="58.798" height="19.478" fill="#fff" stroke="#000" stroke-miterlimit="10" stroke-width="10"/>
    <rect x="29.217" y="460.522" width="19.599" height="19.478" fill="#fff" stroke="#000" stroke-miterlimit="10" stroke-width="10"/>
    <rect x="460.401" y="460.522" width="19.599" height="19.478" fill="#fff" stroke="#000" stroke-miterlimit="10" stroke-width="10"/>
    <rect x="48.817" y="460.522" width="58.798" height="19.478" fill="#fff" stroke="#000" stroke-miterlimit="10" stroke-width="10"/>
    <rect x="107.614" y="460.522" width="58.798" height="19.478" fill="#fff" stroke="#000" stroke-miterlimit="10" stroke-width="10"/>
    <rect x="166.412" y="460.522" width="58.798" height="19.478" fill="#fff" stroke="#000" stroke-miterlimit="10" stroke-width="10"/>
    <rect x="225.21" y="460.522" width="58.798" height="19.478" fill="#fff" stroke="#000" stroke-miterlimit="10" stroke-width="10"/>
    <rect x="284.008" y="460.522" width="58.798" height="19.478" fill="#fff" stroke="#000" stroke-miterlimit="10" stroke-width="10"/>
    <rect x="342.805" y="460.522" width="58.798" height="19.478" fill="#fff" stroke="#000" stroke-miterlimit="10" stroke-width="10"/>
    <rect x="401.603" y="460.522" width="58.798" height="19.478" fill="#fff" stroke="#000" stroke-miterlimit="10" stroke-width="10"/>
    <rect x="48.817" y="51.478" width="58.798" height="58.435" fill="#fff" stroke="#000" stroke-miterlimit="10" stroke-width="10"/>
    <rect x="401.603" y="51.478" width="58.798" height="58.435" fill="#fff" stroke="#000" stroke-miterlimit="10" stroke-width="10"/>
    <rect x="342.805" y="51.478" width="58.798" height="58.435" fill="#fff" stroke="#000" stroke-miterlimit="10" stroke-width="10"/>
    <rect x="284.008" y="51.478" width="58.798" height="58.435" fill="#fff" stroke="#000" stroke-miterlimit="10" stroke-width="10"/>
    <rect x="225.21" y="51.478" width="58.798" height="58.435" fill="#939598" stroke="#000" stroke-miterlimit="10" stroke-width="10"/>
    <rect x="166.412" y="51.478" width="58.798" height="58.435" fill="#fff" stroke="#000" stroke-miterlimit="10" stroke-width="10"/>
    <rect x="107.614" y="51.478" width="58.798" height="58.435" fill="#fff" stroke="#000" stroke-miterlimit="10" stroke-width="10"/>
    <rect x="460.401" y="51.478" width="19.599" height="58.435" fill="#fff" stroke="#000" stroke-miterlimit="10" stroke-width="10"/>
    <rect x="29.217" y="51.478" width="19.599" height="58.435" fill="#fff" stroke="#000" stroke-miterlimit="10" stroke-width="10"/>
    <rect x="48.817" y="109.913" width="58.798" height="58.435" fill="#fff" stroke="#000" stroke-miterlimit="10" stroke-width="10"/>
    <rect x="401.603" y="109.913" width="58.798" height="58.435" fill="#fff" stroke="#000" stroke-miterlimit="10" stroke-width="10"/>
    <rect x="342.805" y="109.913" width="58.798" height="58.435" fill="#fff" stroke="#000" stroke-miterlimit="10" stroke-width="10"/>
    <rect x="284.008" y="109.913" width="58.798" height="58.435" fill="#fff" stroke="#000" stroke-miterlimit="10" stroke-width="10"/>
    <rect x="225.21" y="109.913" width="58.798" height="58.435" fill="#939598" stroke="#000" stroke-miterlimit="10" stroke-width="10"/>
    <rect x="166.412" y="109.913" width="58.798" height="58.435" fill="#fff" stroke="#000" stroke-miterlimit="10" stroke-width="10"/>
    <rect x="107.614" y="109.913" width="58.798" height="58.435" fill="#fff" stroke="#000" stroke-miterlimit="10" stroke-width="10"/>
    <rect x="460.401" y="109.913" width="19.599" height="58.435" fill="#fff" stroke="#000" stroke-miterlimit="10" stroke-width="10"/>
    <rect x="29.217" y="109.913" width="19.599" height="58.435" fill="#fff" stroke="#000" stroke-miterlimit="10" stroke-width="10"/>
    <rect x="48.817" y="168.348" width="58.798" height="58.435" fill="#fff" stroke="#000" stroke-miterlimit="10" stroke-width="10"/>
    <rect x="401.603" y="168.348" width="58.798" height="58.435" fill="#fff" stroke="#000" stroke-miterlimit="10" stroke-width="10"/>
    <rect x="342.805" y="168.348" width="58.798" height="58.435" fill="#fff" stroke="#000" stroke-miterlimit="10" stroke-width="10"/>
    <rect x="284.008" y="168.348" width="58.798" height="58.435" fill="#fff" stroke="#000" stroke-miterlimit="10" stroke-width="10"/>
    <rect x="225.21" y="168.348" width="58.798" height="58.435" fill="#939598" stroke="#000" stroke-miterlimit="10" stroke-width="10"/>
    <rect x="166.412" y="168.348" width="58.798" height="58.435" fill="#fff" stroke="#000" stroke-miterlimit="10" stroke-width="10"/>
    <rect x="107.614" y="168.348" width="58.798" height="58.435" fill="#fff" stroke="#000" stroke-miterlimit="10" stroke-width="10"/>
    <rect x="460.401" y="168.348" width="19.599" height="58.435" fill="#fff" stroke="#000" stroke-miterlimit="10" stroke-width="10"/>
    <rect x="29.217" y="168.348" width="19.599" height="58.435" fill="#fff" stroke="#000" stroke-miterlimit="10" stroke-width="10"/>
    <rect x="48.817" y="226.783" width="58.798" height="58.435" fill="#939598" stroke="#000" stroke-miterlimit="10" stroke-width="10"/>
    <rect x="401.603" y="226.783" width="58.798" height="58.435" fill="#939598" stroke="#000" stroke-miterlimit="10" stroke-width="10"/>
    <rect x="342.805" y="226.783" width="58.798" height="58.435" fill="#939598" stroke="#000" stroke-miterlimit="10" stroke-width="10"/>
    <rect x="284.008" y="226.783" width="58.798" height="58.435" fill="#939598" stroke="#000" stroke-miterlimit="10" stroke-width="10"/>
    <rect x="225.21" y="226.783" width="58.798" height="58.435" fill="#231f20" stroke="#000" stroke-miterlimit="10" stroke-width="10"/>
    <rect x="166.412" y="226.783" width="58.798" height="58.435" fill="#939598" stroke="#000" stroke-miterlimit="10" stroke-width="10"/>
    <rect x="107.614" y="226.783" width="58.798" height="58.435" fill="#939598" stroke="#000" stroke-miterlimit="10" stroke-width="10"/>
    <rect x="460.401" y="226.783" width="19.599" height="58.435" fill="#fff" stroke="#000" stroke-miterlimit="10" stroke-width="10"/>
    <rect x="29.217" y="226.783" width="19.599" height="58.435" fill="#fff" stroke="#000" stroke-miterlimit="10" stroke-width="10"/>
    <rect x="48.817" y="285.217" width="58.798" height="58.435" fill="#fff" stroke="#000" stroke-miterlimit="10" stroke-width="10"/>
    <rect x="401.603" y="285.217" width="58.798" height="58.435" fill="#fff" stroke="#000" stroke-miterlimit="10" stroke-width="10"/>
    <rect x="342.805" y="285.217" width="58.798" height="58.435" fill="#fff" stroke="#000" stroke-miterlimit="10" stroke-width="10"/>
    <rect x="284.008" y="285.217" width="58.798" height="58.435" fill="#fff" stroke="#000" stroke-miterlimit="10" stroke-width="10"/>
    <rect x="225.21" y="285.217" width="58.798" height="58.435" fill="#939598" stroke="#000" stroke-miterlimit="10" stroke-width="10"/>
    <rect x="166.412" y="285.217" width="58.798" height="58.435" fill="#fff" stroke="#000" stroke-miterlimit="10" stroke-width="10"/>
    <rect x="107.614" y="285.217" width="58.798" height="58.435" fill="#fff" stroke="#000" stroke-miterlimit="10" stroke-width="10"/>
    <rect x="460.401" y="285.217" width="19.599" height="58.435" fill="#fff" stroke="#000" stroke-miterlimit="10" stroke-width="10"/>
    <rect x="29.217" y="285.217" width="19.599" height="58.435" fill="#fff" stroke="#000" stroke-miterlimit="10" stroke-width="10"/>
    <rect x="48.817" y="343.652" width="58.798" height="58.435" fill="#fff" stroke="#000" stroke-miterlimit="10" stroke-width="10"/>
    <rect x="401.603" y="343.652" width="58.798" height="58.435" fill="#fff" stroke="#000" stroke-miterlimit="10" stroke-width="10"/>
    <rect x="342.805" y="343.652" width="58.798" height="58.435" fill="#fff" stroke="#000" stroke-miterlimit="10" stroke-width="10"/>
    <rect x="284.008" y="343.652" width="58.798" height="58.435" fill="#fff" stroke="#000" stroke-miterlimit="10" stroke-width="10"/>
    <rect x="225.21" y="343.652" width="58.798" height="58.435" fill="#939598" stroke="#000" stroke-miterlimit="10" stroke-width="10"/>
    <rect x="166.412" y="343.652" width="58.798" height="58.435" fill="#fff" stroke="#000" stroke-miterlimit="10" stroke-width="10"/>
    <rect x="107.614" y="343.652" width="58.798" height="58.435" fill="#fff" stroke="#000" stroke-miterlimit="10" stroke-width="10"/>
    <rect x="460.401" y="343.652" width="19.599" height="58.435" fill="#fff" stroke="#000" stroke-miterlimit="10" stroke-width="10"/>
    <rect x="29.217" y="343.652" width="19.599" height="58.435" fill="#fff" stroke="#000" stroke-miterlimit="10" stroke-width="10"/>
    <rect x="48.817" y="402.087" width="58.798" height="58.435" fill="#fff" stroke="#000" stroke-miterlimit="10" stroke-width="10"/>
    <rect x="401.603" y="402.087" width="58.798" height="58.435" fill="#fff" stroke="#000" stroke-miterlimit="10" stroke-width="10"/>
    <rect x="342.805" y="402.087" width="58.798" height="58.435" fill="#fff" stroke="#000" stroke-miterlimit="10" stroke-width="10"/>
    <rect x="284.008" y="402.087" width="58.798" height="58.435" fill="#fff" stroke="#000" stroke-miterlimit="10" stroke-width="10"/>
    <rect x="225.21" y="402.087" width="58.798" height="58.435" fill="#939598" stroke="#000" stroke-miterlimit="10" stroke-width="10"/>
    <rect x="166.412" y="402.087" width="58.798" height="58.435" fill="#fff" stroke="#000" stroke-miterlimit="10" stroke-width="10"/>
    <rect x="107.614" y="402.087" width="58.798" height="58.435" fill="#fff" stroke="#000" stroke-miterlimit="10" stroke-width="10"/>
    <rect x="460.401" y="402.087" width="19.599" height="58.435" fill="#fff" stroke="#000" stroke-miterlimit="10" stroke-width="10"/>
    <rect x="29.217" y="402.087" width="19.599" height="58.435" fill="#fff" stroke="#000" stroke-miterlimit="10" stroke-width="10"/>
  </g>
  <path d="M256,227.2a8.71,8.71,0,0,0-7.649,4.618,16.263,16.263,0,0,0-1.993,7.3c-4.062,2.169-8.562,4.355-12.185,6.59a25.745,25.745,0,0,0-4.805,3.619,6.348,6.348,0,0,0-2.168,4.378,2.668,2.668,0,0,0,.689,1.729,5.446,5.446,0,0,0,1.3,1.071,16.717,16.717,0,0,0,3.638,1.587,32.69,32.69,0,0,0,6.358,1.373,99.617,99.617,0,0,1-6.961,10.361c-2.683,3.765-5.026,7.377-5.026,11.388a14.245,14.245,0,0,0,.041,1.47,2.417,2.417,0,0,0,.586,1.455,2.086,2.086,0,0,0,1.348.614,11.97,11.97,0,0,0,1.378.043h14.8a4.2,4.2,0,0,0,2.671-.491,5.792,5.792,0,0,0,1.681-2.475l.012-.023.01-.024s1.291-2.833,2.831-5.643a36.48,36.48,0,0,1,2.332-3.8,7.977,7.977,0,0,1,.949-1.111.168.168,0,0,1,.314,0,7.977,7.977,0,0,1,.949,1.111,36.48,36.48,0,0,1,2.332,3.8c1.54,2.81,2.831,5.643,2.831,5.643l.01.023.012.023a5.815,5.815,0,0,0,1.673,2.472,4.133,4.133,0,0,0,2.649.5h14.869a11.427,11.427,0,0,0,1.359-.044,2.08,2.08,0,0,0,1.344-.62,2.426,2.426,0,0,0,.574-1.45,14.483,14.483,0,0,0,.041-1.468c0-4.012-2.343-7.623-5.026-11.389a99.5,99.5,0,0,1-6.96-10.361,32.692,32.692,0,0,0,6.357-1.372,16.814,16.814,0,0,0,3.638-1.587,5.427,5.427,0,0,0,1.3-1.071,2.67,2.67,0,0,0,.689-1.729,6.344,6.344,0,0,0-2.168-4.378,25.7,25.7,0,0,0-4.805-3.619c-3.623-2.235-8.123-4.421-12.185-6.59a16.263,16.263,0,0,0-1.993-7.3A8.709,8.709,0,0,0,256,227.2Z" fill="#fff"/>
</svg>
